<svg width="760" height="560" viewBox="0 0 760 560" fill="none" xmlns="http://www.w3.org/2000/svg">
  <rect width="760" height="560" rx="40" fill="#EFF4FF"/>
  <circle cx="130" cy="122" r="74" fill="#DBE6FE"/>
  <circle cx="630" cy="438" r="88" fill="#BFD3FE"/>
  <rect x="82" y="86" width="596" height="388" rx="28" fill="#FFFFFF" stroke="#DBE6FE"/>
  <rect x="118" y="124" width="174" height="36" rx="18" fill="#DBE6FE"/>
  <rect x="118" y="186" width="220" height="218" rx="24" fill="#EFF4FF"/>
  <rect x="146" y="216" width="164" height="18" rx="9" fill="#A8C6FE"/>
  <rect x="146" y="250" width="128" height="12" rx="6" fill="#BFD3FE"/>
  <rect x="146" y="276" width="136" height="12" rx="6" fill="#BFD3FE"/>
  <rect x="146" y="302" width="96" height="12" rx="6" fill="#BFD3FE"/>
  <rect x="146" y="340" width="110" height="36" rx="18" fill="#3A6BF7"/>
  <rect x="372" y="124" width="270" height="112" rx="24" fill="#2449EC"/>
  <rect x="400" y="154" width="146" height="18" rx="9" fill="#EFF4FF" fill-opacity="0.92"/>
  <rect x="400" y="186" width="198" height="12" rx="6" fill="#A8C6FE"/>
  <rect x="372" y="258" width="270" height="146" rx="24" fill="#FFFFFF" stroke="#DBE6FE"/>
  <rect x="400" y="290" width="98" height="16" rx="8" fill="#DBE6FE"/>
  <rect x="400" y="322" width="188" height="12" rx="6" fill="#BFD3FE"/>
  <rect x="400" y="348" width="164" height="12" rx="6" fill="#BFD3FE"/>
  <rect x="400" y="374" width="176" height="12" rx="6" fill="#BFD3FE"/>
  <path d="M585 293C598.255 293 609 282.255 609 269C609 255.745 598.255 245 585 245C571.745 245 561 255.745 561 269C561 282.255 571.745 293 585 293Z" fill="#1D2DB0"/>
  <path d="M575 269L582 276L596 262" stroke="#FFFDF8" stroke-width="8" stroke-linecap="round" stroke-linejoin="round"/>
</svg>
